<svg xmlns="http://www.w3.org/2000/svg" viewBox="0 0 30.75 31.5"><defs><style>.cls-1{fill:#fff;}</style></defs><g id="Calque_2" data-name="Calque 2"><g id="BG"><path class="cls-1" d="M29.25,24.75a1.5,1.5,0,0,0-1.5,1.5V28.5H3V26.25a1.5,1.5,0,0,0-3,0V30a1.5,1.5,0,0,0,1.5,1.5H29.25a1.5,1.5,0,0,0,1.5-1.5V26.25A1.5,1.5,0,0,0,29.25,24.75Z"/><path class="cls-1" d="M6.93,13.91,14.43,20a1.53,1.53,0,0,0,1.9,0s7.13-6.12,7.15-6.12a1.5,1.5,0,0,0-2-2.28l-4.64,4V1.5a1.5,1.5,0,0,0-3,0V15.7L8.82,11.59A1.5,1.5,0,0,0,6.93,13.91Z"/></g></g></svg>