<svg xmlns="http://www.w3.org/2000/svg" viewBox="0 0 128.58 118.49"><defs><style>.cls-1{fill:none;stroke:#fff;stroke-linecap:round;stroke-miterlimit:10;stroke-width:3px;}</style></defs><g id="Calque_2" data-name="Calque 2"><g id="Calque_1-2" data-name="Calque 1"><path class="cls-1" d="M16.05,116.6a46.69,46.69,0,0,0,6,.39c10.7,0,28.85-3.69,36.17-26.78l65-65.94a13.48,13.48,0,0,0-.14-19,13.82,13.82,0,0,0-19,.14L39.62,70.77c-10.1.53-26.79,7-29.22,28.42-.34,1-1.74,4.24-4.75,4.76a4.67,4.67,0,0,0-4.15,4.69C1.6,113.88,10.66,115.88,16.05,116.6Z"/><line class="cls-1" x1="58.4" y1="90.25" x2="39.57" y2="70.62"/><line class="cls-1" x1="67.7" y1="79.14" x2="50.16" y2="60.81"/></g></g></svg>