<svg xmlns="http://www.w3.org/2000/svg" viewBox="0 0 134.68 120.15"><defs><style>.cls-1{fill:#fff;}</style></defs><g id="Calque_2" data-name="Calque 2"><g id="Calque_1-2" data-name="Calque 1"><path class="cls-1" d="M79.05,58.64a1.23,1.23,0,0,0,1.72,0L96.65,42.76a1.21,1.21,0,0,0,0-1.71L80.77,25.17a1.22,1.22,0,0,0-1.72,1.72l15,15-15,15A1.23,1.23,0,0,0,79.05,58.64Z"/><path class="cls-1" d="M38.11,42,54,57.83a1.23,1.23,0,0,0,1.72,0,1.23,1.23,0,0,0,0-1.72l-15-15,15-15A1.22,1.22,0,1,0,54,24.36L38.11,40.24a1.2,1.2,0,0,0,0,1.71Z"/><path class="cls-1" d="M61,64.54a1.33,1.33,0,0,0,.34,0,1.22,1.22,0,0,0,1.17-.87L75.43,20a1.22,1.22,0,1,0-2.33-.69L60.14,63A1.2,1.2,0,0,0,61,64.54Z"/><path class="cls-1" d="M127.43,0H7.33A7.26,7.26,0,0,0,.07,7.25V78a1.29,1.29,0,0,0-.07.4,1.35,1.35,0,0,0,.07.41V92.24A7.26,7.26,0,0,0,7.33,99.5H49.61s0,0,0,0v12a0,0,0,0,1,0,0H40.39A4.43,4.43,0,0,0,36,115a4.32,4.32,0,0,0,4.22,5.2H95.75a4.45,4.45,0,0,0,4.42-3.43,4.33,4.33,0,0,0-4.23-5.2H87.21a0,0,0,0,1,0,0v-12s0,0,0,0h40.22a7.26,7.26,0,0,0,7.25-7.26v-85A7.26,7.26,0,0,0,127.43,0ZM95.94,114A1.89,1.89,0,0,1,97.82,116a2,2,0,0,1-2,1.71H40.34a2,2,0,0,1-2-1.71A1.89,1.89,0,0,1,40.2,114h9.56a2.31,2.31,0,0,0,2.31-2.31V99.52s0,0,0,0H84.72s0,0,0,0v12.12A2.3,2.3,0,0,0,87.06,114Zm36.31-21.71a4.82,4.82,0,0,1-4.82,4.83H7.33a4.82,4.82,0,0,1-4.82-4.82V79.61s0,0,0,0H132.22a0,0,0,0,1,0,0Zm0-15.09H2.53s0,0,0,0V7.25A4.82,4.82,0,0,1,7.33,2.43h120.1a4.82,4.82,0,0,1,4.82,4.82V77.12A0,0,0,0,1,132.22,77.15Z"/></g></g></svg>