<svg xmlns="http://www.w3.org/2000/svg" viewBox="0 0 109.87 119.22"><defs><style>.cls-1{fill:none;stroke:#fff;stroke-linecap:round;stroke-width:3px;}</style></defs><g id="Calque_2" data-name="Calque 2"><g id="Calque_1-2" data-name="Calque 1"><g id="Page-1"><g id="Clap-board"><path id="Shape" class="cls-1" d="M108.37,58.63v55.22a3.87,3.87,0,0,1-3.87,3.87H7a3.9,3.9,0,0,1-3.87-3.87V58.63"/><path id="Shape-2" data-name="Shape" class="cls-1" d="M108.19,58.63H3.11V46A4,4,0,0,1,7,42H104.5a3.94,3.94,0,0,1,3.87,4V58.63Z"/><path id="Shape-3" data-name="Shape" class="cls-1" d="M13.49,58.07,23,42.37"/><path id="Shape-4" data-name="Shape" class="cls-1" d="M35.69,58.07l10-15.7"/><path id="Shape-5" data-name="Shape" class="cls-1" d="M60.93,58.07l9.51-15.7"/><path id="Shape-6" data-name="Shape" class="cls-1" d="M83.14,58.07l10.2-15.7"/><path id="Shape-7" data-name="Shape" class="cls-1" d="M103.68,4.52a3.79,3.79,0,0,0-4.43-3L4.52,21.88a3.79,3.79,0,0,0-3,4.43L4.33,39.23a3.29,3.29,0,0,0,4.11,2.68l94.89-20.18a3.76,3.76,0,0,0,3.12-4.29L103.68,4.52Z"/><path id="Shape-8" data-name="Shape" class="cls-1" d="M24.59,17.69l-7.7,22.1"/><path id="Shape-9" data-name="Shape" class="cls-1" d="M44.78,13.65,38.13,34.8"/><path id="Shape-10" data-name="Shape" class="cls-1" d="M68.23,8.21,60.93,29.8"/><path id="Shape-11" data-name="Shape" class="cls-1" d="M90.2,3.56,83.74,25.38"/></g></g></g></g></svg>