<svg xmlns="http://www.w3.org/2000/svg" viewBox="0 0 940.04 89.41"><defs><style>.cls-1{fill:#ffebcd;}</style></defs><g id="Calque_2" data-name="Calque 2"><g id="Calque_1-2" data-name="Calque 1"><path class="cls-1" d="M55.88,24V87.88H24.38V24H0V1.52H80.26V24Z"/><path class="cls-1" d="M127.76,89.41c-30.86,0-45.59-20.2-45.59-43.18C82.17,22,97.15,0,132.21,0c30.73,0,45.46,20.19,45.46,43.18C177.67,67.44,162.81,89.41,127.76,89.41ZM129.67,22c-8.13,0-14.23,8.76-14.23,22,0,15.75,6.48,23.5,14.86,23.5,8,0,14.23-8.77,14.23-22C144.53,29.72,138.05,22,129.67,22Z"/><path class="cls-1" d="M270.25,87.88,269,53.34c-.12-3.94,0-17.4,0-17.4s-1.65,10.16-3.43,14.86L252.22,87.88H230.38L216.92,50.8c-1.78-4.57-3.31-14.61-3.31-14.61s.13,12.07,0,15.88l-1.52,35.81H184.91L192.4,1.52h34.8l13.72,37.34c2,5.34,3.3,14,3.3,14a101.08,101.08,0,0,1,3.3-14L260.09,1.52h34.55l6.09,86.36Z"/><path class="cls-1" d="M409.7,83.44c-7.88,3.68-19.18,5.84-31.24,5.84-29.34,0-45-18.67-45-41.91C333.5,21.46,351.4,0,384,0a71.27,71.27,0,0,1,27.69,5.59l-3.81,23a61.39,61.39,0,0,0-21.21-4.31c-12.07,0-20.83,8-20.83,19.68,0,12.7,8.64,20.83,21.34,20.83A60,60,0,0,0,411,59.94Z"/><path class="cls-1" d="M477.89,87.88V55.75H453.51V87.88H422.14V1.52h31.37V32.89h24.38V1.52h31.37V87.88Z"/><path class="cls-1" d="M578.86,87.88l-3.94-14.73h-22.6l-4.07,14.73H516.63L545.71,1.52h37.72l29.08,86.36Zm-12.7-54c-1.27-4.7-2.29-11.43-2.29-11.43s-1.14,6.73-2.41,11.43l-6.22,21.84H572Z"/><path class="cls-1" d="M672.2,87.88c-7.74-21.59-11.05-28.95-14.09-30.35H651V87.88H620.64V1.52c12.83-.38,29.08-.89,40.64-.89,25,0,39.12,8.77,39.12,24.64,0,10.54-8.38,19.69-17.53,22.61,5,2,10.16,9.9,25.15,40Zm-16-68.32H651V40.13h11.43a12.48,12.48,0,0,0,5.72-10.92C668.14,23.62,663.69,19.56,656.2,19.56Z"/><path class="cls-1" d="M715.76,87.88V1.52h31.5V64.39h32.51V87.88Z"/><path class="cls-1" d="M788.41,87.88V1.52h67.18V22.73H818.38V34.42h31.75V54.1H818.38V66.17H856.1V87.88Z"/><path class="cls-1" d="M915.66,24V87.88h-31.5V24H859.78V1.52H940V24Z"/></g></g></svg>